<svg width="20" height="18" viewBox="0 0 20 18" fill="none" xmlns="http://www.w3.org/2000/svg">
<path d="M2.71936 7.25437H2.71867H1.17682C0.861816 7.25437 0.647584 7.46232 0.558816 7.66834C0.47059 7.87309 0.472624 8.13932 0.628212 8.36163L0.628362 8.36185L6.67003 16.985L6.67017 16.9852C7.15237 17.6727 8.11435 17.67 8.59735 16.9867L8.59857 16.9849L19.3691 1.60851C19.3697 1.60776 19.3702 1.60701 19.3708 1.60625C19.5286 1.38327 19.5288 1.11606 19.4408 0.912847C19.3519 0.707491 19.1378 0.5 18.8232 0.5H17.2813C16.8886 0.5 16.5356 0.702872 16.3175 1.01729C16.3171 1.01778 16.3168 1.01827 16.3165 1.01875L7.63323 13.4112L3.68211 7.77106L3.27233 8.05754L3.68184 7.77067L3.68203 7.77094C3.57438 7.617 3.43346 7.48723 3.26653 7.39582C3.09916 7.30418 2.91187 7.25463 2.71936 7.25437Z" fill="#EA5959" stroke="#EA5959"/>
</svg>
