<svg width="60" height="60" viewBox="0 0 60 60" fill="none" xmlns="http://www.w3.org/2000/svg">
<g clip-path="url(#clip0_402_22)">
<path d="M30 59.4C13.764 59.4 0.599998 46.236 0.599998 30C0.599998 13.764 13.764 0.599976 30 0.599976C46.236 0.599976 59.4 13.764 59.4 30C59.4 46.236 46.236 59.4 30 59.4ZM30 4.27798C15.792 4.27798 4.272 15.792 4.272 30C4.272 44.208 15.786 55.728 30 55.728C44.208 55.728 55.728 44.208 55.728 30C55.728 15.792 44.208 4.27798 30 4.27798ZM38.334 45.684C37.62 46.404 36.456 46.404 35.736 45.684L21.672 31.614C21.234 31.17 21.096 30.564 21.192 30C21.09 29.43 21.234 28.824 21.672 28.38L35.742 14.31C36.462 13.596 37.626 13.596 38.34 14.31C39.06 15.024 39.06 16.194 38.34 16.908L25.248 30L38.328 43.086C39.054 43.806 39.054 44.964 38.334 45.684Z" fill="#EA5959"/>
</g>
<defs>
<clipPath id="clip0_402_22">
<rect width="60" height="60" fill="white"/>
</clipPath>
</defs>
</svg>
