<svg width="221" height="83" viewBox="0 0 221 83" fill="none" xmlns="http://www.w3.org/2000/svg">
<g filter="url(#filter0_d_60_9)">
<path d="M25.96 64V32.768H10.92V19.2H55.08V32.768H40.04V64H25.96ZM81.9275 64.96C77.4475 64.96 73.3942 63.9573 69.7675 61.952C66.1835 59.904 63.3675 57.1093 61.3195 53.568C59.2715 49.984 58.2475 45.9947 58.2475 41.6C58.2475 37.2053 59.2715 33.2373 61.3195 29.696C63.3675 26.112 66.1835 23.3173 69.7675 21.312C73.3942 19.264 77.4475 18.24 81.9275 18.24C86.4075 18.24 90.4395 19.264 94.0235 21.312C97.6502 23.3173 100.488 26.112 102.536 29.696C104.584 33.2373 105.608 37.2053 105.608 41.6C105.608 45.9947 104.584 49.984 102.536 53.568C100.488 57.1093 97.6502 59.904 94.0235 61.952C90.4395 63.9573 86.4075 64.96 81.9275 64.96ZM81.9275 51.2C83.6768 51.2 85.2555 50.7947 86.6635 49.984C88.0715 49.1307 89.1808 47.9787 89.9915 46.528C90.8022 45.0347 91.2075 43.392 91.2075 41.6C91.2075 39.808 90.8022 38.1867 89.9915 36.736C89.1808 35.2427 88.0715 34.0907 86.6635 33.28C85.2555 32.4267 83.6768 32 81.9275 32C80.1782 32 78.5995 32.4267 77.1915 33.28C75.7835 34.0907 74.6742 35.2427 73.8635 36.736C73.0528 38.1867 72.6475 39.808 72.6475 41.6C72.6475 43.392 73.0528 45.0347 73.8635 46.528C74.6742 47.9787 75.7835 49.1307 77.1915 49.984C78.5995 50.7947 80.1782 51.2 81.9275 51.2ZM112.058 64V19.2H128.058C133.178 19.2 137.658 20.1173 141.498 21.952C145.38 23.7867 148.367 26.4107 150.458 29.824C152.591 33.1947 153.658 37.12 153.658 41.6C153.658 46.08 152.591 50.0267 150.458 53.44C148.367 56.8107 145.38 59.4133 141.498 61.248C137.658 63.0827 133.178 64 128.058 64H112.058ZM128.122 51.328C130.511 51.328 132.516 50.9653 134.138 50.24C135.759 49.472 136.975 48.3627 137.786 46.912C138.596 45.4613 139.002 43.6907 139.002 41.6C139.002 39.5093 138.596 37.7387 137.786 36.288C136.975 34.8373 135.759 33.7493 134.138 33.024C132.516 32.256 130.511 31.872 128.122 31.872H126.138V51.328H128.122ZM182.428 64.96C177.948 64.96 173.894 63.9573 170.268 61.952C166.684 59.904 163.868 57.1093 161.82 53.568C159.772 49.984 158.748 45.9947 158.748 41.6C158.748 37.2053 159.772 33.2373 161.82 29.696C163.868 26.112 166.684 23.3173 170.268 21.312C173.894 19.264 177.948 18.24 182.428 18.24C186.908 18.24 190.94 19.264 194.524 21.312C198.15 23.3173 200.988 26.112 203.036 29.696C205.084 33.2373 206.108 37.2053 206.108 41.6C206.108 45.9947 205.084 49.984 203.036 53.568C200.988 57.1093 198.15 59.904 194.524 61.952C190.94 63.9573 186.908 64.96 182.428 64.96ZM182.428 51.2C184.177 51.2 185.756 50.7947 187.164 49.984C188.572 49.1307 189.681 47.9787 190.492 46.528C191.302 45.0347 191.708 43.392 191.708 41.6C191.708 39.808 191.302 38.1867 190.492 36.736C189.681 35.2427 188.572 34.0907 187.164 33.28C185.756 32.4267 184.177 32 182.428 32C180.678 32 179.1 32.4267 177.692 33.28C176.284 34.0907 175.174 35.2427 174.364 36.736C173.553 38.1867 173.148 39.808 173.148 41.6C173.148 43.392 173.553 45.0347 174.364 46.528C175.174 47.9787 176.284 49.1307 177.692 49.984C179.1 50.7947 180.678 51.2 182.428 51.2Z" fill="#EA5959"/>
</g>
<defs>
<filter id="filter0_d_60_9" x="0.919998" y="16.24" width="215.188" height="66.72" filterUnits="userSpaceOnUse" color-interpolation-filters="sRGB">
<feFlood flood-opacity="0" result="BackgroundImageFix"/>
<feColorMatrix in="SourceAlpha" type="matrix" values="0 0 0 0 0 0 0 0 0 0 0 0 0 0 0 0 0 0 127 0" result="hardAlpha"/>
<feOffset dy="8"/>
<feGaussianBlur stdDeviation="5"/>
<feComposite in2="hardAlpha" operator="out"/>
<feColorMatrix type="matrix" values="0 0 0 0 0 0 0 0 0 0 0 0 0 0 0 0 0 0 0.25 0"/>
<feBlend mode="normal" in2="BackgroundImageFix" result="effect1_dropShadow_60_9"/>
<feBlend mode="normal" in="SourceGraphic" in2="effect1_dropShadow_60_9" result="shape"/>
</filter>
</defs>
</svg>
