<svg width="33" height="33" viewBox="0 0 33 33" fill="none" xmlns="http://www.w3.org/2000/svg">
<g clip-path="url(#clip0_7_22)">
<path d="M33 16.5C33 20.8761 31.2616 25.0729 28.1673 28.1673C25.0729 31.2616 20.8761 33 16.5 33C12.1239 33 7.92709 31.2616 4.83274 28.1673C1.73839 25.0729 0 20.8761 0 16.5C0 12.1239 1.73839 7.92709 4.83274 4.83274C7.92709 1.73839 12.1239 0 16.5 0C20.8761 0 25.0729 1.73839 28.1673 4.83274C31.2616 7.92709 33 12.1239 33 16.5ZM17.5312 9.28125C17.5312 9.00775 17.4226 8.74544 17.2292 8.55205C17.0358 8.35865 16.7735 8.25 16.5 8.25C16.2265 8.25 15.9642 8.35865 15.7708 8.55205C15.5774 8.74544 15.4688 9.00775 15.4688 9.28125V15.4688H9.28125C9.00775 15.4688 8.74544 15.5774 8.55205 15.7708C8.35865 15.9642 8.25 16.2265 8.25 16.5C8.25 16.7735 8.35865 17.0358 8.55205 17.2292C8.74544 17.4226 9.00775 17.5312 9.28125 17.5312H15.4688V23.7188C15.4688 23.9923 15.5774 24.2546 15.7708 24.448C15.9642 24.6414 16.2265 24.75 16.5 24.75C16.7735 24.75 17.0358 24.6414 17.2292 24.448C17.4226 24.2546 17.5312 23.9923 17.5312 23.7188V17.5312H23.7188C23.9923 17.5312 24.2546 17.4226 24.448 17.2292C24.6414 17.0358 24.75 16.7735 24.75 16.5C24.75 16.2265 24.6414 15.9642 24.448 15.7708C24.2546 15.5774 23.9923 15.4688 23.7188 15.4688H17.5312V9.28125Z" fill="#EA5959"/>
</g>
<defs>
<clipPath id="clip0_7_22">
<rect width="33" height="33" fill="white"/>
</clipPath>
</defs>
</svg>
