<svg width="49" height="47" viewBox="0 0 49 47" fill="none" xmlns="http://www.w3.org/2000/svg">
<path d="M47.3586 19.5326L42.9106 18.2967C42.631 17.304 42.2694 16.3258 41.8302 15.3839C41.391 14.442 40.8741 13.5363 40.2934 12.684L42.2057 8.48216C42.3498 8.16496 42.394 7.81141 42.3323 7.46851C42.2706 7.12562 42.106 6.80963 41.8603 6.56257L41.7578 6.45671C39.7412 4.41806 37.3725 2.76106 34.766 1.56579L34.6311 1.50458C34.315 1.35971 33.9624 1.31403 33.6198 1.37355C33.2771 1.43307 32.9606 1.595 32.7118 1.83801L29.4189 5.08182C27.4053 4.56664 25.3396 4.38318 23.2741 4.54245L20.5874 0.770961C20.3851 0.48725 20.1013 0.271812 19.7736 0.153269C19.4459 0.0347256 19.0899 0.018689 18.7529 0.107289L18.6105 0.144141C15.8681 0.867308 13.2075 2.108 10.8907 3.74394L10.7709 3.82935C10.4864 4.03056 10.2699 4.31357 10.1501 4.64078C10.0303 4.96799 10.0129 5.32391 10.1002 5.66126L11.2665 10.1653C9.83091 11.6388 8.64621 13.3374 7.75939 15.1936L3.12413 15.635C2.77779 15.6685 2.44984 15.8065 2.18386 16.0309C1.91787 16.2552 1.72645 16.5552 1.63503 16.8909L1.59518 17.0336C0.838047 19.7991 0.584837 22.6782 0.847662 25.5334L0.86283 25.68C0.927348 26.3888 1.42396 26.9848 2.1113 27.1785L6.61175 28.4255C6.88688 29.4085 7.24874 30.3746 7.68117 31.302C8.11586 32.2342 8.62339 33.1324 9.19727 33.9702L7.2597 38.2193C7.11558 38.5365 7.07144 38.89 7.13314 39.2329C7.19484 39.5758 7.35946 39.8918 7.6051 40.1389L7.70766 40.2447C9.72753 42.282 12.0815 43.9329 14.6994 45.1356L14.8343 45.1968C15.1504 45.3417 15.503 45.3874 15.8457 45.3279C16.1883 45.2684 16.5048 45.1064 16.7536 44.8634L20.0712 41.5963C22.0727 42.1112 24.1287 42.2991 26.1774 42.1418L28.878 45.9305C29.0803 46.2142 29.3641 46.4296 29.6918 46.5482C30.0195 46.6667 30.3755 46.6827 30.7125 46.5941L30.8549 46.5573C33.6217 45.8257 36.2358 44.6067 38.5747 42.9575L38.6945 42.8721C38.979 42.6709 39.1955 42.3879 39.3153 42.0606C39.4351 41.7334 39.4526 41.3775 39.3653 41.0402L38.2031 36.5578C39.6529 35.0799 40.8479 33.3722 41.7397 31.5039L46.3413 31.0664C46.6876 31.033 47.0156 30.8949 47.2816 30.6705C47.5475 30.4462 47.739 30.1462 47.8304 29.8105L47.8702 29.6678C48.6293 26.8844 48.88 24.0248 48.6178 21.168L48.6026 21.0214C48.5426 20.3223 48.046 19.7264 47.3586 19.5326ZM37.1133 14.8644C37.5766 15.5409 37.9906 16.2641 38.3416 17.0166C38.6925 17.7692 38.9803 18.5512 39.2008 19.3409L39.7882 21.4373L44.8618 22.8485C44.9026 24.3716 44.7677 25.8943 44.4598 27.3865L39.2093 27.8901L38.2688 29.8537C37.5522 31.3464 36.6094 32.6963 35.4556 33.8727L33.9295 35.4296L35.2565 40.5444C33.9577 41.3392 32.5733 41.9848 31.1296 42.4689L28.0599 38.1548L25.8963 38.3066C24.2681 38.4275 22.6328 38.2798 21.0406 37.8696L18.9297 37.323L15.1465 41.0495C13.8027 40.3226 12.554 39.4448 11.4119 38.4406L13.6173 33.5996L12.3961 31.8047C11.9422 31.1356 11.5304 30.4173 11.1863 29.6793C10.8399 28.9365 10.5518 28.1665 10.3358 27.3864L9.74581 25.2972L4.61982 23.8749C4.57754 22.3518 4.71489 20.8337 5.02182 19.337L10.3082 18.8343L11.2464 16.8659C11.9556 15.3826 12.8936 14.0349 14.0328 12.8653L15.5492 11.3129L14.2176 6.18838C15.5095 5.39682 16.9029 4.74705 18.3446 4.26396L21.4098 8.56826L23.5834 8.39997C25.2213 8.27455 26.8663 8.41776 28.4705 8.82828L30.5791 9.37003L34.3399 5.67164C35.6838 6.3986 36.9324 7.27635 38.0746 8.28061L35.8944 13.0743L37.1133 14.8644ZM20.531 14.3274C15.8117 16.5281 13.7699 22.138 15.9705 26.8573C18.1711 31.5766 23.7811 33.6185 28.5004 31.4178C33.2196 29.2172 35.2615 23.6072 33.0609 18.8879C30.8602 14.1687 25.2503 12.1268 20.531 14.3274ZM30.1541 24.9249C29.8856 25.6658 29.4733 26.3464 28.9408 26.9275C28.4083 27.5085 27.7662 27.9785 27.0514 28.3105C25.5997 28.9874 23.9705 29.0556 22.4635 28.5111C21.7225 28.2426 21.0419 27.8302 20.4609 27.2978C19.8798 26.7653 19.4098 26.1231 19.0778 25.4083C18.4009 23.9566 18.3328 22.3274 18.8772 20.8204C19.4266 19.3111 20.5283 18.1117 21.98 17.4348C23.4317 16.7578 25.0586 16.6849 26.5679 17.2342C27.3089 17.5027 27.9895 17.915 28.5705 18.4475C29.1516 18.98 29.6216 19.6221 29.9535 20.3369C30.6305 21.7886 30.6986 23.4178 30.1541 24.9249Z" fill="black"/>
</svg>
