<svg width="33" height="38" viewBox="0 0 33 38" fill="none" xmlns="http://www.w3.org/2000/svg">
<path d="M10.1333 13.9333C10.4692 13.9333 10.7914 14.0668 11.029 14.3043C11.2665 14.5419 11.4 14.8641 11.4 15.2V30.4C11.4 30.736 11.2665 31.0581 11.029 31.2957C10.7914 31.5332 10.4692 31.6667 10.1333 31.6667C9.79736 31.6667 9.47518 31.5332 9.23764 31.2957C9.00009 31.0581 8.86664 30.736 8.86664 30.4V15.2C8.86664 14.8641 9.00009 14.5419 9.23764 14.3043C9.47518 14.0668 9.79736 13.9333 10.1333 13.9333ZM16.4666 13.9333C16.8026 13.9333 17.1248 14.0668 17.3623 14.3043C17.5999 14.5419 17.7333 14.8641 17.7333 15.2V30.4C17.7333 30.736 17.5999 31.0581 17.3623 31.2957C17.1248 31.5332 16.8026 31.6667 16.4666 31.6667C16.1307 31.6667 15.8085 31.5332 15.571 31.2957C15.3334 31.0581 15.2 30.736 15.2 30.4V15.2C15.2 14.8641 15.3334 14.5419 15.571 14.3043C15.8085 14.0668 16.1307 13.9333 16.4666 13.9333ZM24.0666 15.2C24.0666 14.8641 23.9332 14.5419 23.6956 14.3043C23.4581 14.0668 23.1359 13.9333 22.8 13.9333C22.464 13.9333 22.1418 14.0668 21.9043 14.3043C21.6668 14.5419 21.5333 14.8641 21.5333 15.2V30.4C21.5333 30.736 21.6668 31.0581 21.9043 31.2957C22.1418 31.5332 22.464 31.6667 22.8 31.6667C23.1359 31.6667 23.4581 31.5332 23.6956 31.2957C23.9332 31.0581 24.0666 30.736 24.0666 30.4V15.2Z" fill="#EA5959"/>
<path fill-rule="evenodd" clip-rule="evenodd" d="M32.9333 7.6C32.9333 8.27188 32.6664 8.91625 32.1913 9.39134C31.7162 9.86643 31.0719 10.1333 30.4 10.1333H29.1333V32.9333C29.1333 34.2771 28.5995 35.5658 27.6493 36.516C26.6992 37.4662 25.4104 38 24.0667 38H8.86667C7.5229 38 6.23418 37.4662 5.28399 36.516C4.33381 35.5658 3.8 34.2771 3.8 32.9333V10.1333H2.53333C1.86145 10.1333 1.21709 9.86643 0.741996 9.39134C0.266904 8.91625 0 8.27188 0 7.6V5.06667C0 4.39478 0.266904 3.75042 0.741996 3.27533C1.21709 2.80024 1.86145 2.53333 2.53333 2.53333H11.4C11.4 1.86145 11.6669 1.21709 12.142 0.741996C12.6171 0.266904 13.2615 0 13.9333 0L19 0C19.6719 0 20.3162 0.266904 20.7913 0.741996C21.2664 1.21709 21.5333 1.86145 21.5333 2.53333H30.4C31.0719 2.53333 31.7162 2.80024 32.1913 3.27533C32.6664 3.75042 32.9333 4.39478 32.9333 5.06667V7.6ZM6.63227 10.1333L6.33333 10.2828V32.9333C6.33333 33.6052 6.60024 34.2496 7.07533 34.7247C7.55042 35.1998 8.19479 35.4667 8.86667 35.4667H24.0667C24.7385 35.4667 25.3829 35.1998 25.858 34.7247C26.3331 34.2496 26.6 33.6052 26.6 32.9333V10.2828L26.3011 10.1333H6.63227ZM2.53333 7.6V5.06667H30.4V7.6H2.53333Z" fill="#EA5959"/>
</svg>
